<svg xmlns="http://www.w3.org/2000/svg" width="950" height="900"><path d="M-40,1020L-149,1020L204,1051Z" fill="#f3f3f3" stroke="#f3f3f3" stroke-width="1.51"/><path d="M64,-157L170,-139L297,-134Z" fill="#fbfbfb" stroke="#fbfbfb" stroke-width="1.51"/><path d="M64,-157L297,-134L563,-129Z" fill="#f9f9f9" stroke="#f9f9f9" stroke-width="1.51"/><path d="M395,1023L204,1051L627,1012Z" fill="#efefef" stroke="#efefef" stroke-width="1.51"/><path d="M64,-157L563,-129L728,-132Z" fill="#f8f8f8" stroke="#f8f8f8" stroke-width="1.51"/><path d="M64,-157L728,-132L843,-128Z" fill="#f7f7f7" stroke="#f7f7f7" stroke-width="1.51"/><path d="M856,1003L762,1012L958,1017Z" fill="#ececec" stroke="#ececec" stroke-width="1.51"/><path d="M843,-128L1018,-100L1088,-98Z" fill="#f4f4f4" stroke="#f4f4f4" stroke-width="1.51"/><path d="M762,1012L627,1012L1110,1056Z" fill="#ececec" stroke="#ececec" stroke-width="1.51"/><path d="M627,1012L204,1051L1110,1056Z" fill="#ededed" stroke="#ededed" stroke-width="1.51"/><path d="M958,1017L762,1012L1110,1056Z" fill="#ececec" stroke="#ececec" stroke-width="1.51"/><path d="M1007,906L1080,931L1130,808Z" fill="#ececec" stroke="#ececec" stroke-width="1.51"/><path d="M1095,581L1079,689L1130,808Z" fill="#ededed" stroke="#ededed" stroke-width="1.51"/><path d="M1080,931L1110,1056L1130,808Z" fill="#ebebeb" stroke="#ebebeb" stroke-width="1.51"/><path d="M1086,328L979,432L1131,453Z" fill="#efefef" stroke="#efefef" stroke-width="1.51"/><path d="M987,554L1095,581L1131,453Z" fill="#eeeeee" stroke="#eeeeee" stroke-width="1.51"/><path d="M1095,581L1130,808L1131,453Z" fill="#ededed" stroke="#ededed" stroke-width="1.51"/><path d="M1095,19L1025,115L1141,104Z" fill="#f2f2f2" stroke="#f2f2f2" stroke-width="1.51"/><path d="M1025,115L1081,247L1141,104Z" fill="#f1f1f1" stroke="#f1f1f1" stroke-width="1.51"/><path d="M1088,-98L1095,19L1141,104Z" fill="#f3f3f3" stroke="#f3f3f3" stroke-width="1.51"/><path d="M1086,328L1131,453L1141,104Z" fill="#f0f0f0" stroke="#f0f0f0" stroke-width="1.51"/><path d="M1081,247L1086,328L1141,104Z" fill="#f1f1f1" stroke="#f1f1f1" stroke-width="1.51"/><path d="M1079,689L971,798L1130,808Z" fill="#ececec" stroke="#ececec" stroke-width="1.51"/><path d="M971,798L1007,906L1130,808Z" fill="#ececec" stroke="#ececec" stroke-width="1.51"/><path d="M979,432L987,554L1131,453Z" fill="#efefef" stroke="#efefef" stroke-width="1.51"/><path d="M1018,-100L991,-37L1088,-98Z" fill="#f4f4f4" stroke="#f4f4f4" stroke-width="1.51"/><path d="M1088,-98L991,-37L1095,19Z" fill="#f3f3f3" stroke="#f3f3f3" stroke-width="1.51"/><path d="M987,647L1079,689L1095,581Z" fill="#ededed" stroke="#ededed" stroke-width="1.51"/><path d="M1080,931L958,1017L1110,1056Z" fill="#ebebeb" stroke="#ebebeb" stroke-width="1.51"/><path d="M1007,906L958,1017L1080,931Z" fill="#ececec" stroke="#ececec" stroke-width="1.51"/><path d="M1025,115L963,240L1081,247Z" fill="#f1f1f1" stroke="#f1f1f1" stroke-width="1.51"/><path d="M1081,247L1014,302L1086,328Z" fill="#f0f0f0" stroke="#f0f0f0" stroke-width="1.51"/><path d="M1014,302L979,432L1086,328Z" fill="#f0f0f0" stroke="#f0f0f0" stroke-width="1.51"/><path d="M991,-37L1025,115L1095,19Z" fill="#f3f3f3" stroke="#f3f3f3" stroke-width="1.51"/><path d="M987,554L987,647L1095,581Z" fill="#eeeeee" stroke="#eeeeee" stroke-width="1.51"/><path d="M987,647L971,798L1079,689Z" fill="#ededed" stroke="#ededed" stroke-width="1.51"/><path d="M963,240L1014,302L1081,247Z" fill="#f1f1f1" stroke="#f1f1f1" stroke-width="1.51"/><path d="M851,73L911,247L963,240Z" fill="#f2f2f2" stroke="#f2f2f2" stroke-width="1.51"/><path d="M884,708L971,798L987,647Z" fill="#eeeeee" stroke="#eeeeee" stroke-width="1.51"/><path d="M911,307L979,432L1014,302Z" fill="#f0f0f0" stroke="#f0f0f0" stroke-width="1.51"/><path d="M851,73L963,240L1025,115Z" fill="#f2f2f2" stroke="#f2f2f2" stroke-width="1.51"/><path d="M991,-37L893,-9L1025,115Z" fill="#f3f3f3" stroke="#f3f3f3" stroke-width="1.51"/><path d="M893,-9L851,73L1025,115Z" fill="#f3f3f3" stroke="#f3f3f3" stroke-width="1.51"/><path d="M843,-128L991,-37L1018,-100Z" fill="#f4f4f4" stroke="#f4f4f4" stroke-width="1.51"/><path d="M979,432L880,469L987,554Z" fill="#efefef" stroke="#efefef" stroke-width="1.51"/><path d="M963,240L911,307L1014,302Z" fill="#f0f0f0" stroke="#f0f0f0" stroke-width="1.51"/><path d="M897,562L987,647L987,554Z" fill="#eeeeee" stroke="#eeeeee" stroke-width="1.51"/><path d="M843,-128L893,-9L991,-37Z" fill="#f4f4f4" stroke="#f4f4f4" stroke-width="1.51"/><path d="M848,929L958,1017L1007,906Z" fill="#ececec" stroke="#ececec" stroke-width="1.51"/><path d="M971,798L854,828L1007,906Z" fill="#ededed" stroke="#ededed" stroke-width="1.51"/><path d="M854,828L848,929L1007,906Z" fill="#ececec" stroke="#ececec" stroke-width="1.51"/><path d="M880,469L897,562L987,554Z" fill="#efefef" stroke="#efefef" stroke-width="1.51"/><path d="M911,307L880,469L979,432Z" fill="#f0f0f0" stroke="#f0f0f0" stroke-width="1.51"/><path d="M897,562L884,708L987,647Z" fill="#eeeeee" stroke="#eeeeee" stroke-width="1.51"/><path d="M848,929L856,1003L958,1017Z" fill="#ececec" stroke="#ececec" stroke-width="1.51"/><path d="M911,247L911,307L963,240Z" fill="#f1f1f1" stroke="#f1f1f1" stroke-width="1.51"/><path d="M884,708L854,828L971,798Z" fill="#ededed" stroke="#ededed" stroke-width="1.51"/><path d="M510,1000L395,1023L627,1012Z" fill="#eeeeee" stroke="#eeeeee" stroke-width="1.51"/><path d="M749,648L884,708L897,562Z" fill="#efefef" stroke="#efefef" stroke-width="1.51"/><path d="M751,597L749,648L897,562Z" fill="#efefef" stroke="#efefef" stroke-width="1.51"/><path d="M788,331L880,469L911,307Z" fill="#f1f1f1" stroke="#f1f1f1" stroke-width="1.51"/><path d="M851,73L746,198L911,247Z" fill="#f3f3f3" stroke="#f3f3f3" stroke-width="1.51"/><path d="M788,331L911,307L911,247Z" fill="#f1f1f1" stroke="#f1f1f1" stroke-width="1.51"/><path d="M746,198L788,331L911,247Z" fill="#f2f2f2" stroke="#f2f2f2" stroke-width="1.51"/><path d="M788,331L740,465L880,469Z" fill="#f0f0f0" stroke="#f0f0f0" stroke-width="1.51"/><path d="M740,465L751,597L880,469Z" fill="#efefef" stroke="#efefef" stroke-width="1.51"/><path d="M843,-128L762,12L893,-9Z" fill="#f5f5f5" stroke="#f5f5f5" stroke-width="1.51"/><path d="M880,469L751,597L897,562Z" fill="#efefef" stroke="#efefef" stroke-width="1.51"/><path d="M731,807L854,828L884,708Z" fill="#eeeeee" stroke="#eeeeee" stroke-width="1.51"/><path d="M762,12L851,73L893,-9Z" fill="#f4f4f4" stroke="#f4f4f4" stroke-width="1.51"/><path d="M563,-129L661,-117L728,-132Z" fill="#f7f7f7" stroke="#f7f7f7" stroke-width="1.51"/><path d="M747,87L746,198L851,73Z" fill="#f3f3f3" stroke="#f3f3f3" stroke-width="1.51"/><path d="M749,648L731,807L884,708Z" fill="#eeeeee" stroke="#eeeeee" stroke-width="1.51"/><path d="M771,893L848,929L854,828Z" fill="#ededed" stroke="#ededed" stroke-width="1.51"/><path d="M728,-132L762,12L843,-128Z" fill="#f5f5f5" stroke="#f5f5f5" stroke-width="1.51"/><path d="M848,929L762,1012L856,1003Z" fill="#ececec" stroke="#ececec" stroke-width="1.51"/><path d="M731,807L771,893L854,828Z" fill="#ededed" stroke="#ededed" stroke-width="1.51"/><path d="M771,893L762,1012L848,929Z" fill="#ededed" stroke="#ededed" stroke-width="1.51"/><path d="M762,12L747,87L851,73Z" fill="#f4f4f4" stroke="#f4f4f4" stroke-width="1.51"/><path d="M624,687L731,807L749,648Z" fill="#efefef" stroke="#efefef" stroke-width="1.51"/><path d="M728,-132L661,-117L762,12Z" fill="#f6f6f6" stroke="#f6f6f6" stroke-width="1.51"/><path d="M661,-117L634,-15L762,12Z" fill="#f6f6f6" stroke="#f6f6f6" stroke-width="1.51"/><path d="M648,917L762,1012L771,893Z" fill="#ededed" stroke="#ededed" stroke-width="1.51"/><path d="M746,198L658,322L788,331Z" fill="#f2f2f2" stroke="#f2f2f2" stroke-width="1.51"/><path d="M658,322L740,465L788,331Z" fill="#f1f1f1" stroke="#f1f1f1" stroke-width="1.51"/><path d="M658,322L641,452L740,465Z" fill="#f1f1f1" stroke="#f1f1f1" stroke-width="1.51"/><path d="M659,190L658,322L746,198Z" fill="#f3f3f3" stroke="#f3f3f3" stroke-width="1.51"/><path d="M673,93L746,198L747,87Z" fill="#f4f4f4" stroke="#f4f4f4" stroke-width="1.51"/><path d="M740,465L639,540L751,597Z" fill="#f0f0f0" stroke="#f0f0f0" stroke-width="1.51"/><path d="M731,807L648,917L771,893Z" fill="#eeeeee" stroke="#eeeeee" stroke-width="1.51"/><path d="M646,825L648,917L731,807Z" fill="#eeeeee" stroke="#eeeeee" stroke-width="1.51"/><path d="M673,93L659,190L746,198Z" fill="#f3f3f3" stroke="#f3f3f3" stroke-width="1.51"/><path d="M648,917L627,1012L762,1012Z" fill="#ededed" stroke="#ededed" stroke-width="1.51"/><path d="M673,93L747,87L762,12Z" fill="#f4f4f4" stroke="#f4f4f4" stroke-width="1.51"/><path d="M634,-15L673,93L762,12Z" fill="#f5f5f5" stroke="#f5f5f5" stroke-width="1.51"/><path d="M624,687L646,825L731,807Z" fill="#efefef" stroke="#efefef" stroke-width="1.51"/><path d="M624,687L749,648L751,597Z" fill="#efefef" stroke="#efefef" stroke-width="1.51"/><path d="M639,540L624,687L751,597Z" fill="#f0f0f0" stroke="#f0f0f0" stroke-width="1.51"/><path d="M641,452L639,540L740,465Z" fill="#f1f1f1" stroke="#f1f1f1" stroke-width="1.51"/><path d="M524,562L624,687L639,540Z" fill="#f0f0f0" stroke="#f0f0f0" stroke-width="1.51"/><path d="M624,687L537,712L646,825Z" fill="#efefef" stroke="#efefef" stroke-width="1.51"/><path d="M546,357L641,452L658,322Z" fill="#f1f1f1" stroke="#f1f1f1" stroke-width="1.51"/><path d="M545,194L658,322L659,190Z" fill="#f3f3f3" stroke="#f3f3f3" stroke-width="1.51"/><path d="M563,-129L634,-15L661,-117Z" fill="#f6f6f6" stroke="#f6f6f6" stroke-width="1.51"/><path d="M549,119L659,190L673,93Z" fill="#f4f4f4" stroke="#f4f4f4" stroke-width="1.51"/><path d="M634,-15L549,119L673,93Z" fill="#f5f5f5" stroke="#f5f5f5" stroke-width="1.51"/><path d="M297,-134L410,-91L563,-129Z" fill="#f8f8f8" stroke="#f8f8f8" stroke-width="1.51"/><path d="M530,0L549,119L634,-15Z" fill="#f6f6f6" stroke="#f6f6f6" stroke-width="1.51"/><path d="M537,712L505,790L646,825Z" fill="#efefef" stroke="#efefef" stroke-width="1.51"/><path d="M646,825L536,901L648,917Z" fill="#eeeeee" stroke="#eeeeee" stroke-width="1.51"/><path d="M545,194L546,357L658,322Z" fill="#f3f3f3" stroke="#f3f3f3" stroke-width="1.51"/><path d="M549,119L545,194L659,190Z" fill="#f4f4f4" stroke="#f4f4f4" stroke-width="1.51"/><path d="M524,562L639,540L641,452Z" fill="#f1f1f1" stroke="#f1f1f1" stroke-width="1.51"/><path d="M498,447L524,562L641,452Z" fill="#f1f1f1" stroke="#f1f1f1" stroke-width="1.51"/><path d="M536,901L627,1012L648,917Z" fill="#eeeeee" stroke="#eeeeee" stroke-width="1.51"/><path d="M563,-129L530,0L634,-15Z" fill="#f6f6f6" stroke="#f6f6f6" stroke-width="1.51"/><path d="M505,790L536,901L646,825Z" fill="#efefef" stroke="#efefef" stroke-width="1.51"/><path d="M524,562L537,712L624,687Z" fill="#f0f0f0" stroke="#f0f0f0" stroke-width="1.51"/><path d="M536,901L510,1000L627,1012Z" fill="#eeeeee" stroke="#eeeeee" stroke-width="1.51"/><path d="M546,357L498,447L641,452Z" fill="#f2f2f2" stroke="#f2f2f2" stroke-width="1.51"/><path d="M524,562L409,678L537,712Z" fill="#f0f0f0" stroke="#f0f0f0" stroke-width="1.51"/><path d="M545,194L443,239L546,357Z" fill="#f4f4f4" stroke="#f4f4f4" stroke-width="1.51"/><path d="M530,0L395,99L549,119Z" fill="#f6f6f6" stroke="#f6f6f6" stroke-width="1.51"/><path d="M410,-91L530,0L563,-129Z" fill="#f7f7f7" stroke="#f7f7f7" stroke-width="1.51"/><path d="M498,447L447,473L524,562Z" fill="#f1f1f1" stroke="#f1f1f1" stroke-width="1.51"/><path d="M450,920L510,1000L536,901Z" fill="#efefef" stroke="#efefef" stroke-width="1.51"/><path d="M505,790L450,920L536,901Z" fill="#efefef" stroke="#efefef" stroke-width="1.51"/><path d="M395,99L443,239L545,194Z" fill="#f5f5f5" stroke="#f5f5f5" stroke-width="1.51"/><path d="M443,239L410,345L546,357Z" fill="#f3f3f3" stroke="#f3f3f3" stroke-width="1.51"/><path d="M395,99L545,194L549,119Z" fill="#f5f5f5" stroke="#f5f5f5" stroke-width="1.51"/><path d="M410,345L498,447L546,357Z" fill="#f2f2f2" stroke="#f2f2f2" stroke-width="1.51"/><path d="M409,678L413,782L505,790Z" fill="#f0f0f0" stroke="#f0f0f0" stroke-width="1.51"/><path d="M403,549L409,678L524,562Z" fill="#f1f1f1" stroke="#f1f1f1" stroke-width="1.51"/><path d="M410,-91L393,-2L530,0Z" fill="#f7f7f7" stroke="#f7f7f7" stroke-width="1.51"/><path d="M393,-2L395,99L530,0Z" fill="#f7f7f7" stroke="#f7f7f7" stroke-width="1.51"/><path d="M409,678L505,790L537,712Z" fill="#f0f0f0" stroke="#f0f0f0" stroke-width="1.51"/><path d="M447,473L403,549L524,562Z" fill="#f1f1f1" stroke="#f1f1f1" stroke-width="1.51"/><path d="M413,782L450,920L505,790Z" fill="#efefef" stroke="#efefef" stroke-width="1.51"/><path d="M410,345L447,473L498,447Z" fill="#f2f2f2" stroke="#f2f2f2" stroke-width="1.51"/><path d="M450,920L395,1023L510,1000Z" fill="#eeeeee" stroke="#eeeeee" stroke-width="1.51"/><path d="M277,1006L204,1051L395,1023Z" fill="#f0f0f0" stroke="#f0f0f0" stroke-width="1.51"/><path d="M293,824L322,939L413,782Z" fill="#f0f0f0" stroke="#f0f0f0" stroke-width="1.51"/><path d="M395,99L284,212L443,239Z" fill="#f5f5f5" stroke="#f5f5f5" stroke-width="1.51"/><path d="M307,300L410,345L443,239Z" fill="#f4f4f4" stroke="#f4f4f4" stroke-width="1.51"/><path d="M410,345L272,460L447,473Z" fill="#f3f3f3" stroke="#f3f3f3" stroke-width="1.51"/><path d="M413,782L322,939L450,920Z" fill="#f0f0f0" stroke="#f0f0f0" stroke-width="1.51"/><path d="M322,939L395,1023L450,920Z" fill="#f0f0f0" stroke="#f0f0f0" stroke-width="1.51"/><path d="M272,460L403,549L447,473Z" fill="#f2f2f2" stroke="#f2f2f2" stroke-width="1.51"/><path d="M403,549L315,655L409,678Z" fill="#f2f2f2" stroke="#f2f2f2" stroke-width="1.51"/><path d="M284,212L307,300L443,239Z" fill="#f5f5f5" stroke="#f5f5f5" stroke-width="1.51"/><path d="M393,-2L290,11L395,99Z" fill="#f7f7f7" stroke="#f7f7f7" stroke-width="1.51"/><path d="M274,118L284,212L395,99Z" fill="#f6f6f6" stroke="#f6f6f6" stroke-width="1.51"/><path d="M278,589L315,655L403,549Z" fill="#f2f2f2" stroke="#f2f2f2" stroke-width="1.51"/><path d="M290,11L393,-2L410,-91Z" fill="#f8f8f8" stroke="#f8f8f8" stroke-width="1.51"/><path d="M297,-134L290,11L410,-91Z" fill="#f9f9f9" stroke="#f9f9f9" stroke-width="1.51"/><path d="M307,300L272,460L410,345Z" fill="#f4f4f4" stroke="#f4f4f4" stroke-width="1.51"/><path d="M409,678L315,655L413,782Z" fill="#f1f1f1" stroke="#f1f1f1" stroke-width="1.51"/><path d="M315,655L293,824L413,782Z" fill="#f1f1f1" stroke="#f1f1f1" stroke-width="1.51"/><path d="M272,460L278,589L403,549Z" fill="#f3f3f3" stroke="#f3f3f3" stroke-width="1.51"/><path d="M322,939L277,1006L395,1023Z" fill="#f0f0f0" stroke="#f0f0f0" stroke-width="1.51"/><path d="M290,11L274,118L395,99Z" fill="#f7f7f7" stroke="#f7f7f7" stroke-width="1.51"/><path d="M272,460L191,530L278,589Z" fill="#f3f3f3" stroke="#f3f3f3" stroke-width="1.51"/><path d="M212,-27L290,11L297,-134Z" fill="#f9f9f9" stroke="#f9f9f9" stroke-width="1.51"/><path d="M216,416L272,460L307,300Z" fill="#f4f4f4" stroke="#f4f4f4" stroke-width="1.51"/><path d="M204,370L216,416L307,300Z" fill="#f5f5f5" stroke="#f5f5f5" stroke-width="1.51"/><path d="M172,657L198,786L315,655Z" fill="#f3f3f3" stroke="#f3f3f3" stroke-width="1.51"/><path d="M198,786L293,824L315,655Z" fill="#f2f2f2" stroke="#f2f2f2" stroke-width="1.51"/><path d="M293,824L159,908L322,939Z" fill="#f1f1f1" stroke="#f1f1f1" stroke-width="1.51"/><path d="M159,908L277,1006L322,939Z" fill="#f1f1f1" stroke="#f1f1f1" stroke-width="1.51"/><path d="M278,589L172,657L315,655Z" fill="#f3f3f3" stroke="#f3f3f3" stroke-width="1.51"/><path d="M197,117L274,118L290,11Z" fill="#f8f8f8" stroke="#f8f8f8" stroke-width="1.51"/><path d="M284,212L186,214L307,300Z" fill="#f6f6f6" stroke="#f6f6f6" stroke-width="1.51"/><path d="M186,214L204,370L307,300Z" fill="#f6f6f6" stroke="#f6f6f6" stroke-width="1.51"/><path d="M274,118L197,117L284,212Z" fill="#f7f7f7" stroke="#f7f7f7" stroke-width="1.51"/><path d="M197,117L186,214L284,212Z" fill="#f7f7f7" stroke="#f7f7f7" stroke-width="1.51"/><path d="M212,-27L197,117L290,11Z" fill="#f9f9f9" stroke="#f9f9f9" stroke-width="1.51"/><path d="M198,786L159,908L293,824Z" fill="#f2f2f2" stroke="#f2f2f2" stroke-width="1.51"/><path d="M170,-139L212,-27L297,-134Z" fill="#fafafa" stroke="#fafafa" stroke-width="1.51"/><path d="M159,908L204,1051L277,1006Z" fill="#f1f1f1" stroke="#f1f1f1" stroke-width="1.51"/><path d="M191,530L172,657L278,589Z" fill="#f3f3f3" stroke="#f3f3f3" stroke-width="1.51"/><path d="M216,416L191,530L272,460Z" fill="#f4f4f4" stroke="#f4f4f4" stroke-width="1.51"/><path d="M-169,-96L-48,-106L64,-157Z" fill="#fdfdfd" stroke="#fdfdfd" stroke-width="1.51"/><path d="M89,558L172,657L191,530Z" fill="#f4f4f4" stroke="#f4f4f4" stroke-width="1.51"/><path d="M172,657L85,681L198,786Z" fill="#f3f3f3" stroke="#f3f3f3" stroke-width="1.51"/><path d="M85,681L67,763L198,786Z" fill="#f3f3f3" stroke="#f3f3f3" stroke-width="1.51"/><path d="M186,214L61,324L204,370Z" fill="#f6f6f6" stroke="#f6f6f6" stroke-width="1.51"/><path d="M95,995L-40,1020L204,1051Z" fill="#f2f2f2" stroke="#f2f2f2" stroke-width="1.51"/><path d="M159,908L95,995L204,1051Z" fill="#f1f1f1" stroke="#f1f1f1" stroke-width="1.51"/><path d="M170,-139L46,5L212,-27Z" fill="#fafafa" stroke="#fafafa" stroke-width="1.51"/><path d="M67,79L197,117L212,-27Z" fill="#f9f9f9" stroke="#f9f9f9" stroke-width="1.51"/><path d="M46,5L67,79L212,-27Z" fill="#fafafa" stroke="#fafafa" stroke-width="1.51"/><path d="M204,370L102,446L216,416Z" fill="#f5f5f5" stroke="#f5f5f5" stroke-width="1.51"/><path d="M102,446L191,530L216,416Z" fill="#f5f5f5" stroke="#f5f5f5" stroke-width="1.51"/><path d="M77,212L61,324L186,214Z" fill="#f7f7f7" stroke="#f7f7f7" stroke-width="1.51"/><path d="M67,763L78,907L159,908Z" fill="#f3f3f3" stroke="#f3f3f3" stroke-width="1.51"/><path d="M77,212L186,214L197,117Z" fill="#f8f8f8" stroke="#f8f8f8" stroke-width="1.51"/><path d="M67,763L159,908L198,786Z" fill="#f2f2f2" stroke="#f2f2f2" stroke-width="1.51"/><path d="M61,324L102,446L204,370Z" fill="#f6f6f6" stroke="#f6f6f6" stroke-width="1.51"/><path d="M64,-157L46,5L170,-139Z" fill="#fbfbfb" stroke="#fbfbfb" stroke-width="1.51"/><path d="M67,79L77,212L197,117Z" fill="#f8f8f8" stroke="#f8f8f8" stroke-width="1.51"/><path d="M102,446L89,558L191,530Z" fill="#f5f5f5" stroke="#f5f5f5" stroke-width="1.51"/><path d="M78,907L95,995L159,908Z" fill="#f2f2f2" stroke="#f2f2f2" stroke-width="1.51"/><path d="M89,558L85,681L172,657Z" fill="#f4f4f4" stroke="#f4f4f4" stroke-width="1.51"/><path d="M-48,-106L46,5L64,-157Z" fill="#fcfcfc" stroke="#fcfcfc" stroke-width="1.51"/><path d="M67,79L-41,91L77,212Z" fill="#f9f9f9" stroke="#f9f9f9" stroke-width="1.51"/><path d="M67,763L-10,811L78,907Z" fill="#f3f3f3" stroke="#f3f3f3" stroke-width="1.51"/><path d="M-20,585L85,681L89,558Z" fill="#f5f5f5" stroke="#f5f5f5" stroke-width="1.51"/><path d="M-32,455L89,558L102,446Z" fill="#f6f6f6" stroke="#f6f6f6" stroke-width="1.51"/><path d="M61,324L-32,455L102,446Z" fill="#f6f6f6" stroke="#f6f6f6" stroke-width="1.51"/><path d="M-48,-106L-46,-28L46,5Z" fill="#fbfbfb" stroke="#fbfbfb" stroke-width="1.51"/><path d="M-36,241L61,324L77,212Z" fill="#f8f8f8" stroke="#f8f8f8" stroke-width="1.51"/><path d="M-20,585L-19,694L85,681Z" fill="#f5f5f5" stroke="#f5f5f5" stroke-width="1.51"/><path d="M-32,455L-20,585L89,558Z" fill="#f6f6f6" stroke="#f6f6f6" stroke-width="1.51"/><path d="M78,907L-40,1020L95,995Z" fill="#f2f2f2" stroke="#f2f2f2" stroke-width="1.51"/><path d="M-41,91L-36,241L77,212Z" fill="#f9f9f9" stroke="#f9f9f9" stroke-width="1.51"/><path d="M-19,694L67,763L85,681Z" fill="#f4f4f4" stroke="#f4f4f4" stroke-width="1.51"/><path d="M-74,918L-40,1020L78,907Z" fill="#f3f3f3" stroke="#f3f3f3" stroke-width="1.51"/><path d="M-73,350L-32,455L61,324Z" fill="#f7f7f7" stroke="#f7f7f7" stroke-width="1.51"/><path d="M-10,811L-74,918L78,907Z" fill="#f4f4f4" stroke="#f4f4f4" stroke-width="1.51"/><path d="M46,5L-41,91L67,79Z" fill="#fafafa" stroke="#fafafa" stroke-width="1.51"/><path d="M-19,694L-10,811L67,763Z" fill="#f4f4f4" stroke="#f4f4f4" stroke-width="1.51"/><path d="M-36,241L-73,350L61,324Z" fill="#f8f8f8" stroke="#f8f8f8" stroke-width="1.51"/><path d="M-46,-28L-41,91L46,5Z" fill="#fbfbfb" stroke="#fbfbfb" stroke-width="1.51"/><path d="M-124,768L-153,886L-74,918Z" fill="#f5f5f5" stroke="#f5f5f5" stroke-width="1.51"/><path d="M-41,91L-157,124L-36,241Z" fill="#fafafa" stroke="#fafafa" stroke-width="1.51"/><path d="M-157,124L-165,213L-36,241Z" fill="#fafafa" stroke="#fafafa" stroke-width="1.51"/><path d="M-135,453L-135,573L-32,455Z" fill="#f7f7f7" stroke="#f7f7f7" stroke-width="1.51"/><path d="M-32,455L-135,573L-20,585Z" fill="#f6f6f6" stroke="#f6f6f6" stroke-width="1.51"/><path d="M-135,573L-145,682L-20,585Z" fill="#f6f6f6" stroke="#f6f6f6" stroke-width="1.51"/><path d="M-20,585L-145,682L-19,694Z" fill="#f5f5f5" stroke="#f5f5f5" stroke-width="1.51"/><path d="M-19,694L-124,768L-10,811Z" fill="#f5f5f5" stroke="#f5f5f5" stroke-width="1.51"/><path d="M-124,768L-74,918L-10,811Z" fill="#f4f4f4" stroke="#f4f4f4" stroke-width="1.51"/><path d="M-46,-28L-169,-9L-41,91Z" fill="#fcfcfc" stroke="#fcfcfc" stroke-width="1.51"/><path d="M-73,350L-135,453L-32,455Z" fill="#f7f7f7" stroke="#f7f7f7" stroke-width="1.51"/><path d="M-145,682L-124,768L-19,694Z" fill="#f6f6f6" stroke="#f6f6f6" stroke-width="1.51"/><path d="M-169,-9L-157,124L-41,91Z" fill="#fbfbfb" stroke="#fbfbfb" stroke-width="1.51"/><path d="M-74,918L-149,1020L-40,1020Z" fill="#f4f4f4" stroke="#f4f4f4" stroke-width="1.51"/><path d="M-159,307L-73,350L-36,241Z" fill="#f9f9f9" stroke="#f9f9f9" stroke-width="1.51"/><path d="M-48,-106L-169,-96L-46,-28Z" fill="#fdfdfd" stroke="#fdfdfd" stroke-width="1.51"/><path d="M-165,213L-159,307L-36,241Z" fill="#f9f9f9" stroke="#f9f9f9" stroke-width="1.51"/><path d="M-169,-96L-169,-9L-46,-28Z" fill="#fcfcfc" stroke="#fcfcfc" stroke-width="1.51"/><path d="M-153,886L-149,1020L-74,918Z" fill="#f4f4f4" stroke="#f4f4f4" stroke-width="1.51"/><path d="M-159,307L-135,453L-73,350Z" fill="#f8f8f8" stroke="#f8f8f8" stroke-width="1.51"/><path d="M-145,682L-153,886L-124,768Z" fill="#f6f6f6" stroke="#f6f6f6" stroke-width="1.51"/><path d="M-159,307L-145,682L-135,573Z" fill="#f7f7f7" stroke="#f7f7f7" stroke-width="1.51"/><path d="M-159,307L-135,573L-135,453Z" fill="#f8f8f8" stroke="#f8f8f8" stroke-width="1.51"/><path d="M-159,307L-153,886L-145,682Z" fill="#f7f7f7" stroke="#f7f7f7" stroke-width="1.51"/><path d="M-159,307L-165,213L-153,886Z" fill="#f8f8f8" stroke="#f8f8f8" stroke-width="1.51"/><path d="M-169,-9L-165,213L-157,124Z" fill="#fbfbfb" stroke="#fbfbfb" stroke-width="1.51"/></svg>